HIERARCHY
ROOT Hips
{
	OFFSET -3.958830 18.904000 13.208200
	CHANNELS 6 Xposition Yposition Zposition Zrotation Yrotation Xrotation 
	JOINT LHipJoint
	{
		OFFSET 0.000000 0.000000 0.000000
		CHANNELS 3 Zrotation Yrotation Xrotation
		JOINT LeftUpLeg
		{
			OFFSET 1.800000 -1.400000 0.085000
			CHANNELS 3 Zrotation Yrotation Xrotation
			JOINT LeftLeg
			{
				OFFSET 2.215000 -6.000000 0.000000
				CHANNELS 3 Zrotation Yrotation Xrotation
				JOINT LeftFoot
				{
					OFFSET 2.500000 -6.900000 0.000000
					CHANNELS 3 Zrotation Yrotation Xrotation
					JOINT LeftToeBase
					{
						OFFSET 0.200000 -0.500000 1.950000
						CHANNELS 3 Zrotation Yrotation Xrotation
						End Site
						{
							OFFSET 0.000000 0.000000 0.000000
						}
					}
				}
			}
		}
	}
	JOINT RHipJoint
	{
		OFFSET 0.000000 0.000000 0.000000
		CHANNELS 3 Zrotation Yrotation Xrotation
		JOINT RightUpLeg
		{
			OFFSET -1.800000 -1.400000 0.085000
			CHANNELS 3 Zrotation Yrotation Xrotation
			JOINT RightLeg
			{
				OFFSET -2.215000 -6.000000 0.000000
				CHANNELS 3 Zrotation Yrotation Xrotation
				JOINT RightFoot
				{
					OFFSET -2.500000 -6.900000 0.000000
					CHANNELS 3 Zrotation Yrotation Xrotation
					JOINT RightToeBase
					{
						OFFSET -0.200000 -0.500000 1.950000
						CHANNELS 3 Zrotation Yrotation Xrotation
						End Site
						{
							OFFSET 0.000000 0.000000 0.000000
						}
					}
				}
			}
		}
	}
	JOINT LowerBack
	{
		OFFSET 0.000000 0.000000 0.000000
		CHANNELS 3 Zrotation Yrotation Xrotation
		JOINT Spine
		{
			OFFSET -0.087000 1.940000 -0.288900
			CHANNELS 3 Zrotation Yrotation Xrotation
			JOINT Spine1
			{
				OFFSET 0.000000 1.950000 0.060000
				CHANNELS 3 Zrotation Yrotation Xrotation
				JOINT Neck
				{
					OFFSET 0.000000 0.000000 0.000000
					CHANNELS 3 Zrotation Yrotation Xrotation
					JOINT Neck1
					{
						OFFSET 0.000000 1.600000 0.340000
						CHANNELS 3 Zrotation Yrotation Xrotation
						JOINT Head
						{
							OFFSET 0.000000 1.667000 -0.240000
							CHANNELS 3 Zrotation Yrotation Xrotation
							End Site
							{
								OFFSET 0.000000 0.000000 0.000000
							}
						}
					}
				}
				JOINT LeftShoulder
				{
					OFFSET 0.000000 0.000000 0.000000
					CHANNELS 3 Zrotation Yrotation Xrotation
					JOINT LeftArm
					{
						OFFSET 2.700000 1.550000 -0.730000
						CHANNELS 3 Zrotation Yrotation Xrotation
						JOINT LeftForeArm
						{
							OFFSET 5.450000 0.000000 0.000000
							CHANNELS 3 Zrotation Yrotation Xrotation
							JOINT LeftHand
							{
								OFFSET 3.450000 0.000000 0.000000
								CHANNELS 3 Zrotation Yrotation Xrotation
								JOINT LeftHandIndex1
								{
									OFFSET 0.750000 0.000000 0.000000
									CHANNELS 3 Zrotation Yrotation Xrotation
									End Site
									{
										OFFSET 0.000000 0.000000 0.000000
									}
								}
							}
						}
					}
				}
				JOINT RightShoulder
				{
					OFFSET 0.000000 0.000000 0.000000
					CHANNELS 3 Zrotation Yrotation Xrotation
					JOINT RightArm
					{
						OFFSET -2.700000 1.550000 -0.730000
						CHANNELS 3 Zrotation Yrotation Xrotation
						JOINT RightForeArm
						{
							OFFSET -5.450000 0.000000 0.000000
							CHANNELS 3 Zrotation Yrotation Xrotation
							JOINT RightHand
							{
								OFFSET -3.450000 0.000000 0.000000
								CHANNELS 3 Zrotation Yrotation Xrotation
								JOINT RightHandIndex1
								{
									OFFSET -0.750000 0.000000 0.000000
									CHANNELS 3 Zrotation Yrotation Xrotation
									End Site
									{
										OFFSET 0.000000 0.000000 0.000000
									}
								}
							}
						}
					}
				}
			}
		}
	}
}
MOTION
Frames: 13
Frame Time: 0.016667
0.239060 17.066920 -4.850460 0.547084 8.962449 -0.937552 -15.283970 13.282305 3.440061 -10.686105 -2.877214 -12.263642 0.377463 3.876652 21.433621 -0.445214 3.673865 3.241523 0.675610 0.694150 0.393090 18.278274 -10.214500 3.220317 5.607288 5.837609 -28.984001 -13.925385 0.475221 45.368609 -0.891723 -5.654316 2.223383 0.492870 -0.079080 0.206310 -3.565991 -2.830848 -7.701886 7.819131 -7.630022 40.370811 -6.807180 -5.211069 -7.607373 2.172282 -5.662577 -6.571740 -7.353306 0.904624 9.346955 1.517600 0.129610 -39.796060 -9.176399 -14.047170 -0.445883 36.738836 0.762784 -9.421660 136.965507 -17.111674 -41.602681 -3.765872 3.179406 0.430560 -0.126680 0.256050 0.162700 5.515295 17.460763 2.035033 -36.156012 -9.203252 -11.833831 -136.470647 16.574251 -43.874617 2.231557 -1.999262 -0.011190 0.273750 -0.136730 -0.117890 
0.233230 17.067950 -4.849570 0.768914 9.068544 -1.199586 -15.268953 13.264244 3.441991 -10.793058 -2.763512 -11.807191 0.372005 3.877287 21.244930 -0.438588 3.673110 3.244548 0.673460 0.692240 0.386480 18.290880 -10.265747 3.194502 5.470399 5.740625 -28.705921 -14.039393 0.512533 45.451942 -0.896809 -5.680132 2.217843 0.490060 -0.079980 0.202790 -3.609569 -2.727844 -7.692699 7.885911 -7.716087 40.602349 -7.225587 -5.355921 -7.385077 2.160823 -5.913040 -6.573964 -7.684383 0.656039 9.338608 1.715710 -0.178100 -40.041400 -9.206783 -14.013636 -0.403038 36.244228 0.632778 -9.419837 137.191463 -17.332305 -42.448612 -3.757288 3.175958 0.432130 -0.132550 0.255220 0.163350 5.530374 17.551743 2.025696 -36.362141 -9.075930 -11.837148 -136.869424 16.866874 -44.953551 2.230219 -1.991115 -0.010250 0.275910 -0.135010 -0.114450 
0.229040 17.066600 -4.846400 1.028677 9.122346 -1.541619 -15.249188 13.242055 3.449809 -10.891827 -2.641561 -11.249334 0.194971 3.950229 21.158412 -0.421541 3.708554 3.239068 0.659090 0.671760 0.377490 18.305877 -10.342239 3.148747 5.275107 5.549654 -28.236877 -14.221955 0.555884 45.391269 -0.896080 -5.693951 2.218323 0.475080 -0.075600 0.202570 -3.663169 -2.589597 -7.679865 7.971861 -7.785667 40.627936 -7.755969 -5.542269 -6.784865 2.180488 -6.047377 -6.625778 -7.865234 0.364640 9.592147 1.763300 -0.447260 -39.996230 -9.150041 -14.154269 -0.327335 35.942493 0.256071 -9.365030 137.387641 -17.997235 -44.069273 -3.753466 3.164562 0.433360 -0.133040 0.250840 0.160570 5.373900 17.698799 2.113291 -36.426753 -8.568875 -11.735527 -137.527688 17.738969 -47.469304 2.222872 -1.970791 -0.012190 0.274950 -0.128390 -0.113170 
0.229340 17.066880 -4.838290 1.248788 9.073803 -2.093239 -15.232053 13.234270 3.447839 -10.921968 -2.408995 -10.414686 -0.015174 4.059689 20.981851 -0.412203 3.765688 3.226719 0.651630 0.657850 0.377950 18.318683 -10.417992 3.097187 5.110895 5.344332 -27.598804 -14.454783 0.625105 45.481902 -0.901431 -5.742244 2.207305 0.470380 -0.073080 0.199230 -3.707896 -2.474306 -7.657947 8.213389 -7.771228 40.392204 -8.312580 -5.583482 -5.614880 2.222179 -6.263297 -6.634668 -8.140184 -0.183858 9.900691 1.394670 -0.941080 -39.803910 -9.264283 -14.309003 -0.278558 35.520993 -1.311192 -9.169818 137.654087 -19.495215 -47.077400 -3.761161 3.118739 0.432310 -0.129620 0.243720 0.155990 5.335909 17.894904 2.214613 -36.271811 -8.131284 -11.615891 -138.735029 18.589942 -50.942025 2.201279 -1.962562 -0.017840 0.279950 -0.122810 -0.116670 
0.230390 17.061330 -4.826250 1.253322 9.084286 -2.651847 -15.227572 13.257648 3.424389 -10.723880 -2.127234 -9.629519 -0.147242 4.164145 20.757900 -0.412799 3.831035 3.213465 0.641820 0.644010 0.372090 18.320393 -10.460766 3.061098 5.164763 5.178153 -26.935309 -14.602349 0.656887 45.600631 -0.900940 -5.804002 2.195306 0.472670 -0.055830 0.196680 -3.718969 -2.446754 -7.628253 8.542227 -7.701059 39.500430 -8.553214 -5.457058 -3.747772 2.277592 -6.416610 -6.759032 -8.333679 -0.842546 10.312336 0.793610 -1.545640 -38.780650 -9.373383 -14.685243 -0.079441 34.616998 -3.572916 -8.782500 138.138998 -21.648546 -51.528052 -3.783570 3.061044 0.418460 -0.109400 0.224760 0.154040 5.251386 18.347753 2.431646 -35.987529 -6.926803 -11.454426 -139.822480 19.858111 -55.117654 2.163198 -1.950540 -0.027670 0.289650 -0.112680 -0.117970 
0.232490 17.063360 -4.806910 1.199924 9.176899 -3.254936 -15.231000 13.301392 3.399373 -10.457866 -1.768947 -8.657862 -0.242717 4.255461 20.301215 -0.404759 3.890477 3.207499 0.621390 0.619340 0.356810 18.313067 -10.498210 3.017957 5.212762 4.965684 -26.162186 -14.631784 0.623786 45.532495 -0.888961 -5.838458 2.195425 0.467230 -0.027650 0.196700 -3.707996 -2.461300 -7.596352 8.628655 -7.545011 38.184389 -8.545923 -5.286142 -1.371135 2.299031 -6.358868 -6.986735 -8.301330 -1.467529 11.137166 0.255230 -2.037250 -37.084740 -9.391108 -15.221800 0.212603 33.223465 -6.296830 -8.352120 139.040662 -23.340022 -55.694830 -3.811166 3.012873 0.396160 -0.080000 0.199880 0.154200 5.139452 18.818130 2.818734 -35.056563 -5.155317 -11.153224 -140.858198 21.395441 -59.749306 2.124996 -1.931248 -0.037600 0.296410 -0.099700 -0.115110 
0.233670 17.069750 -4.782470 1.037080 9.223832 -3.923011 -15.242053 13.358679 3.364436 -10.042470 -1.332866 -7.520600 -0.311231 4.327562 19.505475 -0.406618 3.935886 3.203351 0.607380 0.601240 0.353840 18.300370 -10.515762 2.984534 5.461574 4.783706 -25.232166 -14.756318 0.657427 45.374210 -0.875159 -5.870632 2.192334 0.471050 -0.002490 0.197280 -3.676870 -2.516361 -7.562678 8.676671 -7.286040 36.375657 -8.361749 -5.028858 1.580005 2.340028 -6.128252 -7.271511 -8.129451 -1.808856 12.276157 -0.710560 -2.258530 -34.743160 -9.489544 -15.858867 0.570853 31.317102 -9.544690 -7.845136 138.522948 -25.414534 -58.592768 -3.856228 2.951356 0.366250 -0.042880 0.172160 0.149970 5.071490 19.283361 3.314430 -33.529909 -2.641861 -10.613968 -141.896452 23.517313 -65.563774 2.081706 -1.908342 -0.047970 0.299120 -0.089180 -0.117900 
0.235270 17.078380 -4.748020 0.851546 9.375062 -4.442676 -15.258260 13.404697 3.332908 -9.633032 -0.909989 -6.392704 -0.312693 4.355149 18.523688 -0.403792 3.951777 3.206386 0.598780 0.588680 0.361190 18.285799 -10.518974 2.960294 5.711547 4.657980 -24.387618 -14.800521 0.672100 45.272719 -0.864957 -5.899353 2.186718 0.474500 0.011150 0.195740 -3.637261 -2.572927 -7.538696 8.580436 -6.940369 34.117526 -8.070247 -4.723330 4.712392 2.366030 -5.618759 -7.578245 -7.651817 -1.978595 13.851034 -1.528620 -2.185160 -32.400550 -9.283907 -16.412337 0.908645 29.145672 -13.094683 -7.171158 138.696872 -27.330529 -62.189836 -3.882245 2.904663 0.337990 -0.013140 0.151070 0.144020 4.735042 19.449167 3.871203 -31.096546 0.436908 -9.842607 -142.674220 25.881628 -71.597650 2.046392 -1.881700 -0.054120 0.294360 -0.087020 -0.123570 
0.239550 17.088470 -4.704320 0.679851 9.493948 -4.914923 -15.279463 13.457695 3.313486 -9.230016 -0.471185 -5.127853 -0.278419 4.360791 17.317987 -0.403418 3.976099 3.213294 0.583130 0.563770 0.358620 18.267245 -10.514232 2.923925 5.865476 4.505758 -23.425758 -14.751867 0.648196 45.126046 -0.846789 -5.924770 2.187016 0.475340 0.036580 0.190810 -3.584426 -2.663942 -7.515238 8.405490 -6.582076 31.814867 -7.585879 -4.452041 7.670783 2.300259 -5.262983 -7.911745 -7.491578 -1.969413 15.529405 -2.210590 -2.126440 -29.692830 -9.024244 -16.960351 1.331095 26.676717 -16.586777 -6.256040 138.840198 -29.270250 -65.765893 -3.915818 2.853688 0.309660 0.021330 0.119510 0.141440 4.554619 19.742382 4.399351 -28.578253 3.558127 -9.044551 -143.203171 27.881643 -76.469586 2.012614 -1.858486 -0.068770 0.295440 -0.079020 -0.128900 
0.241570 17.105470 -4.657480 0.399114 9.392748 -5.379291 -15.299501 13.498670 3.290827 -8.637460 -0.096312 -3.886865 -0.499111 4.426419 16.106458 -0.393671 4.018071 3.211096 0.573160 0.553430 0.347100 18.252566 -10.499983 2.898108 6.216551 4.380187 -22.298127 -14.753522 0.681498 44.699133 -0.828126 -5.913572 2.199968 0.481730 0.065810 0.190640 -3.532689 -2.738967 -7.489221 8.242304 -6.286181 29.670055 -7.005977 -4.234923 10.323611 2.224618 -4.875971 -8.213378 -7.262314 -1.572717 16.993502 -2.385300 -1.816450 -27.357310 -8.913072 -17.477570 1.842100 23.559767 -19.374462 -5.206886 139.663192 -30.160366 -68.800535 -3.946096 2.832265 0.280160 0.054450 0.092610 0.145700 4.583920 19.994917 4.799019 -25.998257 6.929153 -8.237440 -143.478071 29.685461 -80.457353 1.987069 -1.835358 -0.077170 0.295240 -0.073350 -0.125480 
0.245220 17.119840 -4.608000 0.063084 9.241431 -5.862484 -15.313466 13.522667 3.265359 -7.921167 0.210805 -2.648324 -0.756073 4.505912 15.022475 -0.380233 4.082533 3.202329 0.564220 0.545310 0.339410 18.243969 -10.503558 2.865682 6.463284 4.235751 -21.010362 -14.476335 0.591286 44.119656 -0.800869 -5.876241 2.220968 0.491000 0.095890 0.187160 -3.497653 -2.755337 -7.452358 8.178044 -6.024519 27.509317 -6.424514 -4.059395 12.967289 2.129387 -4.467524 -8.463534 -6.959776 -1.186304 18.440295 -2.619750 -1.489750 -25.000790 -8.818680 -18.003666 2.373369 20.344826 -21.790801 -4.106257 140.531031 -30.150188 -70.410852 -3.979090 2.818448 0.246210 0.088940 0.063000 0.148540 4.699090 20.255116 5.145287 -22.969024 10.668118 -7.457940 -142.988298 30.813917 -81.845787 1.965466 -1.813701 -0.086660 0.297910 -0.068660 -0.122690 
0.248830 17.134870 -4.564890 -0.197689 9.164625 -6.519522 -15.325338 13.529512 3.253604 -7.304341 0.505096 -1.265151 -0.957767 4.574987 14.015708 -0.365107 4.163404 3.183376 0.572430 0.558250 0.340650 18.239135 -10.522684 2.814502 6.568946 4.017775 -19.568387 -14.225931 0.496848 43.513648 -0.781788 -5.848171 2.238522 0.512140 0.118260 0.187280 -3.472532 -2.732884 -7.406025 8.056890 -5.782439 25.752464 -5.875709 -3.995908 15.501918 2.008015 -4.001626 -8.578163 -6.498106 -0.750083 19.729179 -2.762860 -1.118050 -23.140240 -8.868467 -18.577581 2.814343 17.614724 -24.008892 -3.080503 141.026513 -30.245302 -71.617817 -4.009090 2.810460 0.214610 0.120190 0.040160 0.154760 5.048958 20.503388 5.383356 -19.730449 14.419514 -6.593123 -142.391482 31.595195 -82.537822 1.941802 -1.802074 -0.089730 0.299230 -0.070940 -0.120740 
0.245420 17.146640 -4.525500 -0.384685 9.320576 -6.939819 -15.331783 13.504562 3.234120 -6.669627 0.741318 -0.120955 -1.328056 4.667898 13.059339 -0.363509 4.245283 3.161029 0.586330 0.578160 0.353420 18.243527 -10.543331 2.773594 6.637204 3.864926 -18.463004 -13.939236 0.391991 42.950673 -0.768382 -5.817624 2.247574 0.539150 0.133940 0.192270 -3.471593 -2.649589 -7.353399 7.970152 -5.544236 23.924071 -5.473825 -4.016263 17.627566 1.914289 -3.451990 -8.564653 -5.808415 -0.449066 20.754043 -3.244050 -0.708040 -21.928910 -8.976213 -19.017778 3.087285 15.398654 -26.377854 -2.027170 141.442751 -30.483011 -72.723639 -4.039263 2.792788 0.191950 0.148990 0.027170 0.157300 5.430181 20.548587 5.514977 -15.943753 18.400492 -5.312500 -142.417743 31.876069 -83.461215 1.913432 -1.797661 -0.094330 0.304180 -0.073640 -0.123600 
